<?xml version="1.0" encoding="utf-8"?>
<!-- Generator: Adobe Illustrator 24.1.2, SVG Export Plug-In . SVG Version: 6.00 Build 0)  -->
<svg version="1.1" id="Layer_1" xmlns="http://www.w3.org/2000/svg" xmlns:xlink="http://www.w3.org/1999/xlink" x="0px" y="0px"
	 viewBox="0 0 620 620" style="enable-background:new 0 0 620 620;" xml:space="preserve">
<style type="text/css">
	.st0{fill:url(#SVGID_1_);stroke:url(#SVGID_2_);stroke-width:20;stroke-miterlimit:10;}
	.st1{fill:#FFFFFF;stroke:#FAFAFA;stroke-width:4;stroke-miterlimit:10;}
</style>
<g>
	
		<linearGradient id="SVGID_1_" gradientUnits="userSpaceOnUse" x1="309.4131" y1="-2931.7581" x2="309.4131" y2="-2389.9617" gradientTransform="matrix(1 0 0 -1 0 -2348)">
		<stop  offset="0" style="stop-color:#ED1E79"/>
		<stop  offset="0.2877" style="stop-color:#FF00FF"/>
		<stop  offset="0.6089" style="stop-color:#00FFFF"/>
		<stop  offset="0.9618" style="stop-color:#FFFFFF;stop-opacity:0"/>
	</linearGradient>
	
		<linearGradient id="SVGID_2_" gradientUnits="userSpaceOnUse" x1="309.4131" y1="-2941.7581" x2="309.4131" y2="-2379.9617" gradientTransform="matrix(1 0 0 -1 0 -2348)">
		<stop  offset="0" style="stop-color:#ED1E79"/>
		<stop  offset="0.2877" style="stop-color:#FF00FF"/>
		<stop  offset="0.6089" style="stop-color:#00FFFF"/>
		<stop  offset="0.9618" style="stop-color:#0071BC"/>
	</linearGradient>
	<path class="st0" d="M504.8,525.4L373.2,241.2V58.1L388.8,42H229.5l15.7,16.2v184.2L114,525.4c-12.6,27.1,6.6,58.3,35.6,58.3h319.6
		C498.3,583.8,517.3,552.5,504.8,525.4z"/>
	<g>
		<path class="st1" d="M440.9,531.4c-2.2-31.7-16.9-61.2-41.4-83c-8.1-7.1-16.9-13.2-26.3-18.2l20.2-34.1l-9-6.1l-21,35.6
			c-16.8-7.1-35.1-10.8-53.9-10.8c-19.2,0-38,3.9-55.1,11.4l-21.3-36.1l-9,6.1l20.5,34.7c-9,4.8-17.5,10.7-25.2,17.5
			c-24.6,21.8-39.2,51.3-41.5,83l-0.4,6.1h263.7L440.9,531.4z M189.2,526c7.2-56.6,58.7-100,120.3-100s113.2,43.5,120.3,100.1
			L189.2,526z"/>
		<ellipse class="st1" cx="250.6" cy="484.2" rx="9.7" ry="10.5"/>
		<ellipse class="st1" cx="368.4" cy="484.2" rx="9.7" ry="10.5"/>
	</g>
</g>
</svg>
